<svg width="24px" height="24px" viewBox="0 0 20 17" version="1.1" xmlns="http://www.w3.org/2000/svg" xmlns:xlink="http://www.w3.org/1999/xlink">
    <defs>
        <path d="M19.408303,18.2880753 C19.408303,18.7657427 19.2381825,19.1707068 18.8986372,19.5022882 C18.5587441,19.8345491 18.1579694,20 17.6959653,20 L17.6145579,20 C17.1522058,20 16.7514311,19.8345491 16.4118859,19.5022882 C16.0716449,19.1707068 15.9022202,18.7657427 15.9022202,18.2880753 C15.9022202,17.8369072 16.0716449,17.4458722 16.4118859,17.1136114 C16.7514311,16.78203 17.1522058,16.6158996 17.6145579,16.6158996 L17.6959653,16.6158996 C18.1579694,16.6158996 18.5587441,16.78203 18.8986372,17.1136114 C19.2381825,17.4458722 19.408303,17.8369072 19.408303,18.2880753 L19.408303,18.2880753 Z M12.4368411,18.2880753 C12.4368411,18.7657427 12.2667205,19.1707068 11.9271753,19.5022882 C11.5872822,19.8345491 11.1865075,20 10.7245033,20 L10.643096,20 C10.1807439,20 9.78692711,19.8345491 9.46060188,19.5022882 C9.13462454,19.1707068 8.97146193,18.7657427 8.97146193,18.2880753 C8.97146193,17.8369072 9.13462454,17.4458722 9.46060188,17.1136114 C9.78692711,16.78203 10.1807439,16.6158996 10.643096,16.6158996 L10.7245033,16.6158996 C11.1865075,16.6158996 11.5872822,16.78203 11.9271753,17.1136114 C12.2667205,17.4458722 12.4368411,17.8369072 12.4368411,18.2880753 L12.4368411,18.2880753 Z M20.2644718,14.9039749 L8.07458939,14.9039749 C7.63937312,14.9039749 7.36766735,14.6919803 7.25912421,14.2669718 L4.81307656,4.7119247 L2.89687254,4.7119247 C2.65230257,4.7119247 2.44147838,4.62597174 2.26509576,4.45304662 C2.08801736,4.28080098 2,4.08851096 2,3.87583685 C2,3.63700314 2.08801736,3.43180319 2.26509576,3.25887808 C2.44147838,3.08629269 2.65230257,3 2.89687254,3 L5.46537912,3 C5.92738329,3 6.21265694,3.21267411 6.32154799,3.63700314 L8.76759563,13.1920502 L19.5714656,13.1920502 L20.2644718,10.0467835 C20.3187434,9.83478886 20.4544224,9.66220348 20.6722044,9.52936709 C20.8892907,9.39687044 21.1067249,9.35678171 21.324507,9.40978037 C21.5415933,9.46311877 21.7183238,9.58916045 21.8543506,9.78790543 C21.9900296,9.98699015 22.0310811,10.1928696 21.9768096,10.4052039 L21.1206407,14.2272228 C21.0388854,14.6787306 20.7536118,14.9039749 20.2644718,14.9039749 L20.2644718,14.9039749 Z" id="path-cart-icon"></path>
    </defs>
    <g stroke="none" stroke-width="1" fill="none" fill-rule="evenodd">
        <g transform="translate(-288.000000, -84.000000)">
            <g transform="translate(0.000000, 64.000000)">
                <g id="Header">
                    <g id="Cart" transform="translate(276.000000, 5.000000)">
                        <g id="cart" transform="translate(10.000000, 12.000000)">
                            <mask id="mask-cart-icon" fill="white">
                                <use xlink:href="#path-cart-icon"></use>
                            </mask>
                            <g id="cart-number"></g>
                            <rect id="tint/545658" fill="#545658" fill-rule="evenodd" mask="url(#mask-cart-icon)" x="-11" y="-10" width="44" height="44"></rect>
                        </g>
                    </g>
                </g>
            </g>
        </g>
    </g>
</svg>