<svg width="24px" height="18px" viewBox="0 0 24 18" version="1.1" xmlns="http://www.w3.org/2000/svg" xmlns:xlink="http://www.w3.org/1999/xlink"><g id="mobile-drawer-simplified" stroke="none" stroke-width="1" fill="none" fill-rule="evenodd"><g id="Header-Default-320" transform="translate(-10.000000, -82.000000)" fill="#2F3337"><g id="Header-Logo" transform="translate(0.000000, 64.000000)"><g id="Header"><g id="Menu" transform="translate(0.000000, 5.000000)"><g transform="translate(10.000000, 13.000000)" id="menu"><path d="M0,8.72000027 C0,8.11271377 0.501345991,7.62041079 1.09375137,7.62041079 L22.9096902,7.62041079 C23.5137524,7.62041079 24.0034416,8.10847988 24.0034416,8.72000027 L24.0034416,8.72000027 C24.0034416,9.32728677 23.5020956,9.81958974 22.9096902,9.81958974 L1.09375137,9.81958974 C0.489689169,9.81958974 0,9.33152066 0,8.72000027 L0,8.72000027 Z M0,1.09958948 C0,0.492302978 0.501345991,0 1.09375137,0 L22.9096902,0 C23.5137524,0 24.0034416,0.488069088 24.0034416,1.09958948 L24.0034416,1.09958948 C24.0034416,1.70687598 23.5020956,2.19917895 22.9096902,2.19917895 L1.09375137,2.19917895 C0.489689169,2.19917895 0,1.71110987 0,1.09958948 L0,1.09958948 Z M0,16.3659829 C0,15.7728193 0.479477846,15.2919653 1.07800942,15.2919653 L22.9254322,15.2919653 C23.5208003,15.2919653 24.0034416,15.7686839 24.0034416,16.3659829 L24.0034416,16.3659829 C24.0034416,16.9591465 23.5239637,17.4400005 22.9254322,17.4400005 L1.07800942,17.4400005 C0.482641258,17.4400005 0,16.9632819 0,16.3659829 L0,16.3659829 Z"></path></g></g></g></g></g></g></svg>