<svg height="27" class="overstock-logo-text" viewBox="0 0 141 25" version="1.1" xmlns="http://www.w3.org/2000/svg" xmlns:xlink="http://www.w3.org/1999/xlink"> <g id="Page-1" stroke="none" stroke-width="1" fill="none" fill-rule="evenodd"> <g id="The-Original" transform="translate(-157.000000, -43.000000)" fill="#000000"> <g id="Overstock™_logo_RGB" transform="translate(122.000000, 39.694656)"> <g id="Group" transform="translate(34.815248, 3.906902)"> <path d="M7.87806568,5.88333439 C2.58882612,5.88333439 0.178539732,10.4796894 0.178539732,14.8921902 C0.178539732,19.2817092 2.58882612,23.901046 7.87806568,23.901046 C13.1673052,23.901046 15.5775916,19.304691 15.5775916,14.8921902 C15.5775916,10.4796894 13.1673052,5.88333439 7.87806568,5.88333439 L7.87806568,5.88333439 Z M7.87806568,21.3960325 C3.88323918,21.3960325 3.05749291,17.1673859 3.05749291,14.8692084 C3.05749291,12.5710309 3.88323918,8.34238432 7.87806568,8.34238432 C11.8728922,8.34238432 12.6986385,12.5710309 12.6986385,14.8692084 C12.6986385,17.1673859 11.8728922,21.3960325 7.87806568,21.3960325 L7.87806568,21.3960325 Z M24.0582289,20.2699255 L23.9912765,20.2699255 L19.6840055,6.38893344 L16.4479728,6.38893344 L22.4960063,23.4414105 L25.4642293,23.4414105 L31.7577549,6.38893344 L28.7225794,6.38893344 L24.0582289,20.2699255 L24.0582289,20.2699255 Z M40.4615668,5.88333439 C34.9937875,5.88333439 32.5165487,10.0889992 32.5165487,15.3748075 C32.5165487,20.2929073 35.2615971,23.9240277 39.9259476,23.9240277 C42.5817261,23.9240277 43.6529645,23.2805381 44.4117584,22.7519572 C46.5096002,21.3270872 47.2683941,18.9140008 47.357664,18.0866569 L44.5679806,18.0866569 C44.4787108,19.3506545 42.9164881,21.4419961 40.2830271,21.4419961 C37.0916294,21.4419961 35.4624543,19.3966181 35.4624543,15.834443 L47.5585212,15.834443 C47.5808386,9.79023614 45.2375046,5.88333439 40.4615668,5.88333439 L40.4615668,5.88333439 Z M35.4847718,13.5362655 C35.4847718,10.8933613 37.5156612,8.45729319 40.0821699,8.45729319 C43.4744248,8.45729319 44.5456632,10.8933613 44.7018854,13.5362655 L35.4847718,13.5362655 L35.4847718,13.5362655 Z M53.4949673,9.21569177 L53.4280149,9.21569177 L53.4280149,6.36595167 L50.7945538,6.36595167 L50.7945538,23.4184287 L53.5842371,23.4184287 L53.5842371,13.5132837 C53.5842371,11.031252 55.2357296,8.93991047 57.8245558,8.93991047 L58.8734767,8.93991047 L58.8734767,5.97526149 C58.650302,5.90631617 58.4940798,5.88333439 58.1370003,5.88333439 C56.0614759,5.88333439 54.6108406,7.21627734 53.4949673,9.21569177 L53.4949673,9.21569177 Z M68.7824318,13.7660832 L65.9927485,13.0536482 C63.8502717,12.5020856 62.9798905,12.1803407 62.9798905,10.7784525 C62.9798905,8.66412917 65.4124944,8.36536609 66.2828756,8.36536609 C69.7867178,8.36536609 70.1661147,10.1579445 70.2107497,11.238088 L72.9111631,11.238088 C72.9111631,10.3877623 72.5094487,5.88333439 66.5730026,5.88333439 C63.3146525,5.88333439 60.3017945,7.58398574 60.3017945,11.3300151 C60.3017945,13.6741561 61.8193823,14.8921902 64.1403988,15.4667346 L67.3764314,16.2940785 C69.7420829,16.9145864 70.6794165,17.3742219 70.6794165,18.7301466 C70.6794165,20.6146522 68.8717017,21.4419961 66.8854472,21.4419961 C62.9575731,21.4419961 62.5781761,19.2817092 62.4889063,17.9487663 L59.7884928,17.9487663 C59.8777627,19.9941442 60.3687469,23.9240277 66.9077646,23.9240277 C70.6347815,23.9240277 73.4690998,21.8097045 73.4690998,18.2934929 C73.4467823,15.9493518 72.2416391,14.6623724 68.7824318,13.7660832 L68.7824318,13.7660832 Z M80.0527524,1.60872425 L77.2630691,1.60872425 L77.2630691,6.36595167 L75.009005,6.36595167 L75.009005,8.75605627 L77.2630691,8.75605627 L77.2630691,20.017126 C77.2630691,22.062504 77.8656407,23.6712282 80.6106891,23.6712282 C80.9008161,23.6712282 81.6819275,23.5333376 82.7085309,23.4414105 L82.7085309,21.1891965 L81.7265624,21.1891965 C81.1463083,21.1891965 80.0527524,21.1891965 80.0527524,19.8562536 L80.0527524,8.75605627 L82.7085309,8.75605627 L82.7085309,6.36595167 L80.0527524,6.36595167 L80.0527524,1.60872425 L80.0527524,1.60872425 Z M92.0372319,5.88333439 C86.7479924,5.88333439 84.337706,10.4796894 84.337706,14.8921902 C84.337706,19.2817092 86.7479924,23.901046 92.0372319,23.901046 C97.3264715,23.901046 99.7367579,19.304691 99.7367579,14.8921902 C99.7144404,10.4796894 97.3264715,5.88333439 92.0372319,5.88333439 L92.0372319,5.88333439 Z M92.0372319,21.3960325 C88.0424054,21.3960325 87.2166592,17.1673859 87.2166592,14.8692084 C87.2166592,12.5710309 88.0424054,8.34238432 92.0372319,8.34238432 C96.0320584,8.34238432 96.8578047,12.5710309 96.8578047,14.8692084 C96.8578047,17.1673859 96.009741,21.3960325 92.0372319,21.3960325 L92.0372319,21.3960325 Z M109.801935,8.45729319 C112.145269,8.45729319 113.37273,9.83619969 113.729809,12.1113954 L116.430223,12.1113954 C116.207048,9.14674644 114.555556,5.88333439 110.225967,5.88333439 C104.758188,5.88333439 102.280949,10.0889992 102.280949,15.3748075 C102.280949,20.2929073 105.025997,23.9240277 109.690348,23.9240277 C114.533238,23.9240277 116.140096,20.1090531 116.430223,17.3972037 L113.729809,17.3972037 C113.261143,20.017126 111.631968,21.4419961 109.779618,21.4419961 C105.941014,21.4419961 105.249172,17.8108756 105.249172,14.8921902 C105.226855,11.8585959 106.342728,8.45729319 109.801935,8.45729319 L109.801935,8.45729319 Z M132.476481,6.36595167 L128.928004,6.36595167 L121.808732,13.582229 L121.808732,0.022981775 L119.108319,0.022981775 L119.108319,23.4414105 L121.808732,23.4414105 L121.808732,16.9605499 L124.129749,14.8002631 L129.285084,23.4184287 L132.855878,23.4184287 L126.138321,12.7319033 L132.476481,6.36595167 L132.476481,6.36595167 Z" id="Shape"></path> <path d="M136.493625,0.390690175 L136.493625,2.78079477 L136.047276,2.78079477 L136.047276,0.390690175 L135.199212,0.390690175 L135.199212,0.022981775 L137.319372,0.022981775 L137.319372,0.390690175 L136.493625,0.390690175 L136.493625,0.390690175 Z M140.376864,2.78079477 L140.376864,0.4596355 L140.354547,0.4596355 L139.484166,2.757813 L139.194039,2.757813 L138.323658,0.4596355 L138.30134,0.4596355 L138.30134,2.757813 L137.854991,2.757813 L137.854991,0 L138.546832,0 L139.350261,2.09134152 L140.131372,0 L140.800896,0 L140.800896,2.757813 L140.376864,2.757813 L140.376864,2.78079477 Z" id="Shape"></path> </g> </g> </g> </g> </svg>