<svg height="35" viewBox="0 0 30 32" version="1.1" xmlns="http://www.w3.org/2000/svg"> 
  <g id="Page-1" stroke="none" stroke-width="1" fill="none" fill-rule="evenodd"> 
    <g id="The-Original" transform="translate(-122.000000, -39.000000)"> 
      <g id="Overstock™_logo_RGB" transform="translate(122.000000, 39.694656)"> 
        <g id="Group"> 
          <path d="M0,18.4543653 C0,27.4862029 3.90555664,30.6806696 10.9132411,30.6806696 L27.4504838,30.6806696 C28.7448969,30.6806696 29.7938178,29.6005262 29.7938178,28.2675832 L29.7938178,2.41308637 C29.7938178,1.08014342 28.7448969,0 27.4504838,0 L2.34333398,0 C1.04892093,0 0,1.08014342 0,2.41308637 L0,18.4543653 L0,18.4543653 Z" id="Shape" fill="#FFFFFF"></path> <path d="M18.6797195,26.2681688 C20.6213391,23.7861371 21.5809901,20.729561 21.5809901,17.052477 C21.5809901,13.9729192 20.8221963,11.4219422 19.3046085,9.42252774 C17.7870208,7.40013154 15.8900362,6.38893344 13.5913371,6.38893344 C10.6900665,6.38893344 8.27978008,7.62994929 6.31584303,10.0889992 C4.39654091,12.5480491 3.41457238,15.627607 3.41457238,19.3276728 C3.41457238,22.4072306 4.17336624,24.9582076 5.69095396,26.9806038 C7.20854169,28.9800182 9.12784381,29.9912163 11.4488603,29.9912163 C14.3278135,29.9912163 16.7380999,28.7502005 18.6797195,26.2681688 L18.6797195,26.2681688 Z M0,0 L0,16.9375682 C0.736476395,14.2716823 2.20942919,11.8815777 4.39654091,9.72129081 C7.72184342,6.45787877 11.6497175,4.82617274 16.1578458,4.82617274 C18.9475291,4.82617274 21.2239107,5.76842552 22.9646731,7.67591284 C24.7054354,9.58340016 25.5758166,12.0654319 25.5758166,15.1449897 C25.5758166,19.5804723 23.9020066,23.4184287 20.5767041,26.658859 C18.6350845,28.5433645 16.4702903,29.8992892 14.0823214,30.6806696 L29.7938178,30.6806696 L29.7938178,0 L0,0 L0,0 Z" id="Shape" fill="#C6202D">
            </path> 
        </g> 
      </g> 
    </g> 
  </g> 
</svg>